<?xml version="1.0" encoding="UTF-8" standalone="no"?>
<!-- Created with Inkscape (http://www.inkscape.org/) -->

<svg
   xmlns:dc="http://purl.org/dc/elements/1.1/"
   xmlns:cc="http://creativecommons.org/ns#"
   xmlns:rdf="http://www.w3.org/1999/02/22-rdf-syntax-ns#"
   xmlns:svg="http://www.w3.org/2000/svg"
   xmlns="http://www.w3.org/2000/svg"
   xmlns:inkscape="http://www.inkscape.org/namespaces/inkscape"
   version="1.1"
   width="496.0625"
   height="566.25"
   id="svg2"
   xml:space="preserve"><metadata
     id="metadata8"><rdf:RDF><cc:Work
         rdf:about=""><dc:format>image/svg+xml</dc:format><dc:type
           rdf:resource="http://purl.org/dc/dcmitype/StillImage" /></cc:Work></rdf:RDF></metadata><defs
     id="defs6" /><g
     transform="matrix(1.25,0,0,-1.25,0,566.25)"
     id="g10"><g
       transform="scale(0.1,0.1)"
       id="g12"><path
         d="m 1060.87,3581.86 c -70.311,-14.57 -132.503,-45.07 -189.421,-79.01 -82.609,-49.27 -160.867,-100.76 -210.73,-181.97 -1.465,-11.05 5.316,-13.78 4.734,-23.95 -29.957,31.96 -49.672,74.28 -59.191,126.9 -38.004,-38.75 -74.946,-122.97 -80.508,-186.76 -37.438,47.93 -132.774,56.54 -215.473,43.11 -84.777,-13.77 -138.851,-64.39 -179.949,-124.5 -23.437,-34.28 -49.9453,-78.86 -92.3476,-95.78 82.5586,102.48 111.4536,259.22 250.9926,304.08 -10.051,12.18 -26.375,18.03 -44.993,21.55 37.461,24.37 86.629,36.9 132.598,52.67 -17.496,69.51 -37.09,149.1 -33.148,234.64 1.378,30.02 5.156,61.87 4.734,90.98 -0.766,52.88 -31.738,94.21 -42.621,134.09 1.734,9.83 12.906,-8.22 18.941,-9.59 -17.668,31.62 -30.484,68.14 -40.25,107.75 10.278,-2.55 12.215,-27.93 30.782,-28.73 22.335,-0.98 25.57,25.59 30.781,50.28 32.922,156.06 166.633,264.73 260.461,349.57 5.277,-9.03 6.336,-22.33 16.57,-26.35 26.914,40.62 39.414,95.83 85.234,117.32 3.707,-8.23 7.153,-16.7 16.582,-19.15 76.383,29.71 139.106,73.22 236.778,81.41 13.402,-4.29 -8.992,-8.69 -4.738,-19.15 49.322,-3.01 96.682,17.44 146.802,21.54 102.06,8.35 188.99,-25.11 248.62,-74.22 13.61,13.36 32.21,21.7 47.35,33.52 3.2,-15.93 4.86,-33.4 9.47,-47.89 19.99,6.14 32.48,19.84 49.73,28.73 17.95,-52.08 43.18,-96.8 75.77,-134.08 10.63,2.02 14.09,11.29 23.68,14.37 54.75,-23.31 85.58,-77.41 118.38,-136.47 23.6,-42.49 43.32,-92.12 47.36,-138.87 10.6,-122.95 -20.41,-245.46 -47.36,-349.57 -11.11,4.73 -5.74,26.12 -7.1,40.7 -26.29,-134.62 -66.94,-254.73 -151.54,-330.41 -4.46,18.11 16.39,31.3 18.95,50.28 -62.45,-66.82 -201.46,-162.46 -336.23,-172.39 -33.6,-2.47 -71.17,-0.81 -85.24,16.76 2.64,57.11 70.33,65.93 78.14,119.72 4.14,28.55 -8.19,70.39 -33.15,74.22 -27,4.14 -63.16,-10.71 -97.08,-16.76 -34.51,-6.14 -67.849,-11.22 -94.709,-19.16 33.469,30.81 62.679,65.91 92.339,100.57"
         inkscape:connector-curvature="0"
         id="path14"
         style="fill:#000000;fill-opacity:1;fill-rule:evenodd;stroke:none" /><path
         d="m 3156.37,3723.12 c -14.68,-33.06 -69.11,-46.65 -97.09,-74.23 92.29,38.18 257.99,49.6 343.34,-2.39 -56.23,0.98 -92.81,-17.9 -123.14,-43.1 118.91,14.36 205.97,-34.37 272.31,-95.77 66.21,-61.3 154.02,-171.06 161,-287.31 3.21,-53.41 -8.6,-112.35 -33.15,-146.05 3.3,42.44 -4.39,73.77 -18.94,98.16 -4.2,-93.12 -31.93,-162.45 -71.03,-220.27 27.99,6.02 62.18,26.49 94.71,35.91 5.05,-10.88 -11.32,-18.62 -18.95,-26.33 -24.38,-24.66 -51.66,-58.43 -73.4,-86.2 5.2,-27.62 52.49,-29.86 68.67,-19.15 -15.11,-61.31 -68.97,-100.87 -111.29,-143.66 -41.95,-42.42 -90.69,-77.43 -142.07,-110.14 -100.72,-64.12 -240.63,-144.27 -400.15,-119.71 -29.55,88.25 -50.03,184.2 -82.87,270.56 -25.71,67.58 -68.1,127.81 -104.18,189.14 -36.25,61.59 -72.56,122.85 -118.39,174.78 -46.32,52.48 -106.05,86.11 -161.02,131.69 -1.68,68.41 36.42,115.49 71.04,158.02 34.68,42.59 72.09,82.74 111.29,117.32 73.66,64.99 180.4,140.65 291.23,162.82 49.18,9.83 111.06,2.03 142.08,35.91"
         inkscape:connector-curvature="0"
         id="path16"
         style="fill:#000000;fill-opacity:1;fill-rule:evenodd;stroke:none" /><path
         d="m 3007.19,1352.77 c -14.25,3.95 -34.39,1.95 -52.09,2.4 14.42,-29.32 31.59,-76.6 33.14,-126.9 -20.58,5.52 -33.51,18.79 -56.81,21.55 20,-98.78 -21.15,-221.43 -116.03,-234.64 -63.51,-8.84 -107.61,26.51 -144.43,57.46 -21.63,-21.23 -11.56,-74.515 -30.78,-98.167 5.49,164.907 -26.12,286.497 -71.05,407.027 -15.19,40.79 -30.59,81.41 -40.25,124.51 -24.91,111.16 -37.18,246.68 23.69,342.39 31.91,50.19 79.94,93.87 142.06,105.34 44.4,8.19 81.6,-4.93 97.08,-31.12 31.55,-53.4 38.72,-157.74 33.14,-241.83 -0.97,-14.86 -5.29,-27.94 -4.72,-43.09 1.77,-48.63 22.42,-92.9 44.98,-117.33 24.68,-26.7 63.84,-38.47 89.98,-69.43 22.91,-27.15 30.13,-74.25 52.09,-98.17 z m -305.44,191.55 c 66.49,0 71,132.1 -9.48,117.31 -60.53,-11.11 -53.42,-117.31 9.48,-117.31 z m 16.57,-33.53 c -54.76,2.89 -73.94,41.76 -97.08,76.62 -5.9,-62.47 46.07,-116.02 97.08,-76.62"
         inkscape:connector-curvature="0"
         id="path18"
         style="fill:#000000;fill-opacity:1;fill-rule:evenodd;stroke:none" /><path
         d="m 1416.04,1884.31 c 45.26,8.39 75.5,-17.32 71.03,-59.86 -6.66,-63.34 -127.13,-68.84 -118.39,14.37 2.38,22.64 18.74,40.17 47.36,45.49"
         inkscape:connector-curvature="0"
         id="path20"
         style="fill:#ffffff;fill-opacity:1;fill-rule:evenodd;stroke:none" /><path
         d="m 2692.27,1661.63 c 80.48,14.79 75.97,-117.31 9.48,-117.31 -62.9,0 -70.01,106.2 -9.48,117.31"
         inkscape:connector-curvature="0"
         id="path22"
         style="fill:#ffffff;fill-opacity:1;fill-rule:evenodd;stroke:none" /><path
         d="m 2621.24,1587.41 c 23.14,-34.86 42.32,-73.73 97.08,-76.62 -51.01,-39.4 -102.98,14.15 -97.08,76.62"
         inkscape:connector-curvature="0"
         id="path24"
         style="fill:#ffffff;fill-opacity:1;fill-rule:evenodd;stroke:none" /><path
         d="m 2692.27,876.309 c -9.93,-61.524 -47.13,-109.715 -89.97,-150.84 -23.99,-23.028 -54.92,-43.203 -97.07,-47.879 -5.42,17.273 21.97,32.984 11.83,55.055 -69.46,8.058 -97.15,-58.583 -144.43,-93.368 -30.37,-22.343 -62.18,-38.918 -104.18,-50.285 -9.5,-44.336 -51.13,-80.347 -35.53,-129.285 11.31,-35.496 72.45,-49.016 113.66,-55.078 53.43,-7.852 109.35,-5.281 151.53,7.187 -76.03,-112.683 -207.84,-166.433 -378.84,-177.175 -103.85,-6.528 -168.15,25.242 -239.15,67.039 -82.03,48.3 -151.45,90.183 -217.83,146.054 43.72,-12.754 92.02,-35.129 163.37,-31.132 40.2,2.253 88.48,11.125 132.6,16.765 128.34,16.406 209.69,44.953 234.42,160.41 -29.32,35.969 -75.46,42.024 -104.2,79.016 -31.93,41.125 -14.4,114.238 -52.09,155.637 -31.83,-0.332 -34.82,-39.59 -23.68,-64.653 -21.17,5.813 -49.11,34.407 -73.39,62.246 -11.04,12.668 -21.32,26.418 -33.15,38.313 -26.74,26.894 -68.2,73.535 -42.62,129.285 7.54,16.459 30.18,35.299 52.09,35.929 21.61,0.62 45.61,-16.34 68.67,-16.77 36.83,-0.67 76.4,14.6 116.01,21.54 38.89,6.83 80.47,16.73 120.77,16.77 134.2,0.1 235.69,-36.77 326.76,-86.195 29.62,-16.086 53.13,-39.426 82.86,-55.059 22,-11.574 46.96,-13.051 61.56,-33.527"
         inkscape:connector-curvature="0"
         id="path26"
         style="fill:#000000;fill-opacity:1;fill-rule:evenodd;stroke:none" /><path
         d="m 2.47656,4530 c 1321.94344,0 2644.17344,0 3966.03344,0 0,-1509.92 0,-3020.14 0,-4530 C 2645.73,0 1322.89,0 0.101562,0 c 0,1507.7 0,3015.05 0,4522.81 -0.1992182,3.4 -0.390624,6.78 2.374998,7.19 z M 968.531,3481.29 c 26.86,7.94 60.199,13.02 94.709,19.16 33.92,6.05 70.08,20.9 97.08,16.76 24.96,-3.83 37.29,-45.67 33.15,-74.22 -7.81,-53.79 -75.5,-62.61 -78.14,-119.72 14.07,-17.57 51.64,-19.23 85.24,-16.76 134.77,9.93 273.78,105.57 336.23,172.39 -2.56,-18.98 -23.41,-32.17 -18.95,-50.28 84.6,75.68 125.25,195.79 151.54,330.41 1.36,-14.58 -4.01,-35.97 7.1,-40.7 26.95,104.11 57.96,226.62 47.36,349.57 -4.04,46.75 -23.76,96.38 -47.36,138.87 -32.8,59.06 -63.63,113.16 -118.38,136.47 -9.59,-3.08 -13.05,-12.35 -23.68,-14.37 -32.59,37.28 -57.82,82 -75.77,134.08 -17.25,-8.89 -29.74,-22.59 -49.73,-28.73 -4.61,14.49 -6.27,31.96 -9.47,47.89 -15.14,-11.82 -33.74,-20.16 -47.35,-33.52 -59.63,49.11 -146.56,82.57 -248.62,74.22 -50.12,-4.1 -97.48,-24.55 -146.802,-21.54 -4.254,10.46 18.14,14.86 4.738,19.15 -97.672,-8.19 -160.395,-51.7 -236.778,-81.41 -9.429,2.45 -12.875,10.92 -16.582,19.15 -45.82,-21.49 -58.32,-76.7 -85.234,-117.32 -10.234,4.02 -11.293,17.32 -16.57,26.35 -93.828,-84.84 -227.539,-193.51 -260.461,-349.57 -5.211,-24.69 -8.446,-51.26 -30.781,-50.28 -18.567,0.8 -20.504,26.18 -30.782,28.73 9.766,-39.61 22.582,-76.13 40.25,-107.75 -6.035,1.37 -17.207,19.42 -18.941,9.59 10.883,-39.88 41.855,-81.21 42.621,-134.09 0.422,-29.11 -3.356,-60.96 -4.734,-90.98 -3.942,-85.54 15.652,-165.13 33.148,-234.64 -45.969,-15.77 -95.137,-28.3 -132.598,-52.67 18.618,-3.52 34.942,-9.37 44.993,-21.55 -139.539,-44.86 -168.434,-201.6 -250.9926,-304.08 42.4023,16.92 68.9106,61.5 92.3476,95.78 41.098,60.11 95.172,110.73 179.949,124.5 82.699,13.43 178.035,4.82 215.473,-43.11 5.562,63.79 42.504,148.01 80.508,186.76 9.519,-52.62 29.234,-94.94 59.191,-126.9 0.582,10.17 -6.199,12.9 -4.734,23.95 49.863,81.21 128.121,132.7 210.73,181.97 56.918,33.94 119.11,64.44 189.421,79.01 -29.66,-34.66 -58.87,-69.76 -92.339,-100.57 z m 2045.759,205.92 c -110.83,-22.17 -217.57,-97.83 -291.23,-162.82 -39.2,-34.58 -76.61,-74.73 -111.29,-117.32 -34.62,-42.53 -72.72,-89.61 -71.04,-158.02 54.97,-45.58 114.7,-79.21 161.02,-131.69 45.83,-51.93 82.14,-113.19 118.39,-174.78 36.08,-61.33 78.47,-121.56 104.18,-189.14 32.84,-86.36 53.32,-182.31 82.87,-270.56 159.52,-24.56 299.43,55.59 400.15,119.71 51.38,32.71 100.12,67.72 142.07,110.14 42.32,42.79 96.18,82.35 111.29,143.66 -16.18,-10.71 -63.47,-8.47 -68.67,19.15 21.74,27.77 49.02,61.54 73.4,86.2 7.63,7.71 24,15.45 18.95,26.33 -32.53,-9.42 -66.72,-29.89 -94.71,-35.91 39.1,57.82 66.83,127.15 71.03,220.27 14.55,-24.39 22.24,-55.72 18.94,-98.16 24.55,33.7 36.36,92.64 33.15,146.05 -6.98,116.25 -94.79,226.01 -161,287.31 -66.34,61.4 -153.4,110.13 -272.31,95.77 30.33,25.2 66.91,44.08 123.14,43.1 -85.35,51.99 -251.05,40.57 -343.34,2.39 27.98,27.58 82.41,41.17 97.09,74.23 -31.02,-33.88 -92.9,-26.08 -142.08,-35.91 z M 760.16,1606.57 c 21.699,20.36 45.977,42.56 68.668,57.46 0.004,-2.41 -1.914,-2.85 -2.375,-4.78 -29.441,-64.76 -59.887,-226.01 7.106,-270.56 112.48,-74.8 282.531,6.85 393.061,28.73 -18.56,-28.32 -38.58,-55.16 -68.67,-71.83 189.85,17.7 328.1,97.31 447.51,208.3 53.57,49.79 106.43,109.4 142.06,186.75 35,75.93 82.52,151.21 80.51,249.01 -0.96,46.79 -18.96,95.74 -37.89,122.11 -6.36,8.88 -14.69,20.72 -23.67,19.16 2.92,-24.73 -7.8,-55.79 -18.95,-74.22 3.93,127.9 -63.05,204.87 -175.21,208.3 -76.14,2.32 -149.59,-30.36 -205.99,-62.26 -117.8,-66.6 -203.49,-155.47 -345.7,-191.54 -70.366,-17.85 -151.729,-19.72 -229.675,-40.7 29.039,-13.73 56.59,-28.97 85.239,-43.1 -60.047,-58.2 -110.137,-139.22 -137.332,-222.67 26.019,35.95 60.097,76.5 99.449,90.99 -28.301,-71.15 -60.574,-138.28 -97.078,-201.12 5.89,-4.23 13.472,6.84 18.937,11.97 z M 2955.1,1450.94 c -26.14,30.96 -65.3,42.73 -89.98,69.43 -22.56,24.43 -43.21,68.7 -44.98,117.33 -0.57,15.15 3.75,28.23 4.72,43.09 5.58,84.09 -1.59,188.43 -33.14,241.83 -15.48,26.19 -52.68,39.31 -97.08,31.12 -62.12,-11.47 -110.15,-55.15 -142.06,-105.34 -60.87,-95.71 -48.6,-231.23 -23.69,-342.39 9.66,-43.1 25.06,-83.72 40.25,-124.51 44.93,-120.53 76.54,-242.12 71.05,-407.027 19.22,23.652 9.15,76.937 30.78,98.167 36.82,-30.95 80.92,-66.3 144.43,-57.46 94.88,13.21 136.03,135.86 116.03,234.64 23.3,-2.76 36.23,-16.03 56.81,-21.55 -1.55,50.3 -18.72,97.58 -33.14,126.9 17.7,-0.45 37.84,1.55 52.09,-2.4 -21.96,23.92 -29.18,71.02 -52.09,98.17 z M 2630.71,909.836 c -29.73,15.633 -53.24,38.973 -82.86,55.059 -91.07,49.425 -192.56,86.295 -326.76,86.195 -40.3,-0.04 -81.88,-9.94 -120.77,-16.77 -39.61,-6.94 -79.18,-22.21 -116.01,-21.54 -23.06,0.43 -47.06,17.39 -68.67,16.77 -21.91,-0.63 -44.55,-19.47 -52.09,-35.929 -25.58,-55.75 15.88,-102.391 42.62,-129.285 11.83,-11.895 22.11,-25.645 33.15,-38.313 24.28,-27.839 52.22,-56.433 73.39,-62.246 -11.14,25.063 -8.15,64.321 23.68,64.653 37.69,-41.399 20.16,-114.512 52.09,-155.637 28.74,-36.992 74.88,-43.047 104.2,-79.016 -24.73,-115.457 -106.08,-144.004 -234.42,-160.41 -44.12,-5.64 -92.4,-14.512 -132.6,-16.765 -71.35,-3.997 -119.65,18.378 -163.37,31.132 66.38,-55.871 135.8,-97.754 217.83,-146.054 71,-41.797 135.3,-73.567 239.15,-67.039 171,10.742 302.81,64.492 378.84,177.175 -42.18,-12.468 -98.1,-15.039 -151.53,-7.187 -41.21,6.062 -102.35,19.582 -113.66,55.078 -15.6,48.938 26.03,84.949 35.53,129.285 42,11.367 73.81,27.942 104.18,50.285 47.28,34.785 74.97,101.426 144.43,93.368 10.14,-22.071 -17.25,-37.782 -11.83,-55.055 42.15,4.676 73.08,24.851 97.07,47.879 42.84,41.125 80.04,89.316 89.97,150.84 -14.6,20.476 -39.56,21.953 -61.56,33.527"
         inkscape:connector-curvature="0"
         id="path28"
         style="fill:#ffffff;fill-opacity:1;fill-rule:evenodd;stroke:none" /><path
         d="m 741.223,1594.6 c 36.504,62.84 68.777,129.97 97.078,201.12 -39.352,-14.49 -73.43,-55.04 -99.449,-90.99 27.195,83.45 77.285,164.47 137.332,222.67 -28.649,14.13 -56.2,29.37 -85.239,43.1 77.946,20.98 159.309,22.85 229.675,40.7 142.21,36.07 227.9,124.94 345.7,191.54 56.4,31.9 129.85,64.58 205.99,62.26 112.16,-3.43 179.14,-80.4 175.21,-208.3 11.15,18.43 21.87,49.49 18.95,74.22 8.98,1.56 17.31,-10.28 23.67,-19.16 18.93,-26.37 36.93,-75.32 37.89,-122.11 2.01,-97.8 -45.51,-173.08 -80.51,-249.01 -35.63,-77.35 -88.49,-136.96 -142.06,-186.75 -119.41,-110.99 -257.66,-190.6 -447.51,-208.3 30.09,16.67 50.11,43.51 68.67,71.83 -110.53,-21.88 -280.581,-103.53 -393.061,-28.73 -66.993,44.55 -36.547,205.8 -7.106,270.56 0.461,1.93 2.379,2.37 2.375,4.78 -22.691,-14.9 -46.969,-37.1 -68.668,-57.46 -5.465,-5.13 -13.047,-16.2 -18.937,-11.97 z m 627.457,244.22 c -8.74,-83.21 111.73,-77.71 118.39,-14.37 4.47,42.54 -25.77,68.25 -71.03,59.86 -28.62,-5.32 -44.98,-22.85 -47.36,-45.49 z m -61.56,-4.8 c -8.53,-17.7 -10.84,-41.71 -9.48,-69.43 12.89,-60.38 123.93,-46.97 142.08,-7.18 -68.02,-25.97 -110.71,32.36 -132.6,76.61"
         inkscape:connector-curvature="0"
         id="path30"
         style="fill:#000000;fill-opacity:1;fill-rule:evenodd;stroke:none" /><path
         d="m 1439.72,1757.41 c -18.15,-39.79 -129.19,-53.2 -142.08,7.18 -1.36,27.72 0.95,51.73 9.48,69.43 21.89,-44.25 64.58,-102.58 132.6,-76.61"
         inkscape:connector-curvature="0"
         id="path32"
         style="fill:#ffffff;fill-opacity:1;fill-rule:evenodd;stroke:none" /></g></g></svg>